<?xml version="1.0" encoding="utf-8"?>
<!-- Generator: Adobe Illustrator 14.0.0, SVG Export Plug-In . SVG Version: 6.00 Build 43363)  -->
<!DOCTYPE svg PUBLIC "-//W3C//DTD SVG 1.1//EN" "http://www.w3.org/Graphics/SVG/1.1/DTD/svg11.dtd">
<svg version="1.1"
	 id="IKEA" xmlns:dc="http://purl.org/dc/elements/1.1/" xmlns:cc="http://creativecommons.org/ns#" xmlns:rdf="http://www.w3.org/1999/02/22-rdf-syntax-ns#" xmlns:svg="http://www.w3.org/2000/svg" xmlns:sodipodi="http://sodipodi.sourceforge.net/DTD/sodipodi-0.dtd" xmlns:inkscape="http://www.inkscape.org/namespaces/inkscape" inkscape:version="0.48.2 r9819" sodipodi:docname="AJAX1.svg"
	 xmlns="http://www.w3.org/2000/svg" xmlns:xlink="http://www.w3.org/1999/xlink" x="0px" y="0px" width="400px" height="300px"
	 viewBox="-23 -86.5 400 300" enable-background="new -23 -86.5 400 300" xml:space="preserve">
<path id="blue" fill="#003399" d="M4.191,0.636v123.993h345.617V0.636H4.191z"/>
<path id="yellow" fill="#FFCC00" d="M176.988,6.443c-93.173,0-168.717,25.31-168.717,56.531c0,31.217,75.544,56.546,168.717,56.546
	c93.177,0,168.729-25.327,168.729-56.546C345.717,31.752,270.164,6.443,176.988,6.443z"/>
<path id="k" fill="#003399" d="M171.726,81.099l-1.152-0.883l-15.375-24.57l12.758-18.143l-29.319-0.033
	c0,0,0.485,0.808,0.485,1.304c0,0.789-0.221,1.335-0.221,1.335l-10.671,13.961l0.018-14.403l0.254-1.285l0.494-0.646H99.538
	l0.481,0.606l0.257,1.163l0.011,40.189l-0.253,1.313l-0.485,0.663h29.448l-0.506-0.663l-0.265-1.225l-0.041-15.339l9.314,14.683
	c0,0,0.374,1.013,0.15,2.054c-0.036,0.146-0.18,0.33-0.325,0.49h35.71L171.726,81.099z"/>
<polygon id="i" fill="#003399" points="83.461,38.383 83.952,37.736 54.496,37.736 54.841,38.364 54.96,39.549 54.96,79.781 
	54.854,81.181 54.508,82.018 83.94,82.098 83.461,81.274 83.201,79.901 83.213,39.668 "/>
<polygon id="e" fill="#003399" points="230.068,68.68 228.567,68.979 207.266,68.979 207.266,64.908 223.581,64.889 224.854,65.14 
	225.717,65.644 225.74,53.224 224.92,53.703 223.581,53.947 207.266,54.01 207.266,50.428 228.451,50.428 229.851,50.526 
	230.688,50.882 230.648,37.399 179.214,37.302 179.712,38.152 179.929,39.549 179.929,79.784 179.723,81.187 179.25,82.024 
	230.855,82.125 230.808,68.11 "/>
<path id="a" fill="#003399" d="M312.837,82.02l-0.768-0.701l-0.554-0.869l-17.428-40.827c0,0-0.218-0.798-0.128-1.41
	c0.086-0.628,0.497-0.851,0.497-0.851L254.54,37.35c0,0,0.408,0.235,0.493,0.848c0.094,0.627-0.125,1.414-0.125,1.414L240.089,79.48
	c0,0,0.076-0.048-0.318,0.787c-0.483,1.057-1.357,1.403-1.357,1.403h25.42c0,0-0.517-0.727-0.517-1.585
	c0-0.441,0.213-0.491,0.213-0.491l2.243-5.734h13.722l2.047,5.735c0,0,0.157,0.582,0.206,1.034c0.05,0.425-0.434,1.445-0.434,1.445
	L312.837,82.02z M269.167,64.098l3.463-7.79l3.474,7.79H269.167z"/>
</svg>
