<?xml version="1.0" encoding="utf-8"?>
<!-- Generator: Adobe Illustrator 23.0.2, SVG Export Plug-In . SVG Version: 6.00 Build 0)  -->
<svg version="1.1" id="Ebene_1" xmlns="http://www.w3.org/2000/svg" xmlns:xlink="http://www.w3.org/1999/xlink" x="0px" y="0px"
	 viewBox="0 0 298.1 126.6" style="enable-background:new 0 0 298.1 126.6;" xml:space="preserve">
<style type="text/css">
	.st0{fill:#FFFFFF;}
</style>
<g>
	<path id="an_IBM_company" class="st0" d="M127.9,121.8c-0.3,0.2-0.8,0.3-1.4,0.3c-1,0-1.6-0.5-1.6-1.8c-1.1,1.3-2.5,1.8-4.2,1.8
		c-2.1,0-3.9-0.9-3.9-3.3c0-2.7,2-3.3,4-3.6c2.1-0.4,4-0.3,4-1.7c0-1.7-1.4-2-2.6-2c-1.6,0-2.9,0.5-2.9,2.2h-1.9c0.1-2.9,2.4-4,5-4
		c2.1,0,4.4,0.5,4.4,3.2v6.1c0,0.9,0,1.3,0.6,1.3c0.2,0,0.4,0,0.6-0.1v1.6H127.9z M124.8,115.7c-1.5,1.1-5.9,0-5.9,2.9
		c0,1.3,1.1,1.7,2.3,1.7c2.6,0,3.6-1.6,3.6-2.7L124.8,115.7L124.8,115.7z M130.2,110h1.8v1.9l0,0c0.8-1.5,2.1-2.1,3.8-2.1
		c3.1,0,4.1,1.8,4.1,4.3v7.8H138v-8c0-1.5-0.9-2.4-2.4-2.4c-2.4,0-3.5,1.6-3.5,3.7v6.7h-1.9L130.2,110L130.2,110z M149.2,105.5h2.2
		v16.3h-2.2V105.5z M155,105.5h5.9c1.4,0,3.4,0,4.3,0.6c1.1,0.6,1.9,1.8,1.9,3.4c0,1.7-0.9,3-2.4,3.7l0,0c2,0.4,3.1,1.9,3.1,3.9
		c0,2.4-1.7,4.7-5,4.7h-7.9L155,105.5L155,105.5z M157.2,112.5h4.3c2.5,0,3.5-0.9,3.5-2.6c0-2.3-1.6-2.6-3.5-2.6h-4.3V112.5z
		 M157.2,120h5.4c1.9,0,3.1-1.1,3.1-2.9c0-2.1-1.7-2.7-3.5-2.7h-5V120z M170.6,105.5h3l5.1,13.7l5.2-13.7h3v16.3h-2.1v-13.5l0,0
		l-5.1,13.6h-1.8l-5.1-13.6l0,0v13.6h-2.1L170.6,105.5L170.6,105.5z M207.8,110.4c-0.5-2.3-2.3-3.5-4.6-3.5c-3.9,0-5.5,3.2-5.5,6.6
		c0,3.7,1.6,6.8,5.5,6.8c2.8,0,4.5-2,4.7-4.7h2.2c-0.4,4.1-2.9,6.5-7.1,6.5c-5,0-7.5-3.7-7.5-8.5c0-4.7,2.7-8.6,7.7-8.6
		c3.4,0,6.2,1.8,6.7,5.3L207.8,110.4L207.8,110.4z M217.9,109.7c3.7,0,5.7,2.7,5.7,6.2c0,3.4-2,6.2-5.7,6.2s-5.7-2.7-5.7-6.2
		C212.2,112.5,214.2,109.7,217.9,109.7z M217.9,120.4c2,0,3.7-1.6,3.7-4.5s-1.6-4.5-3.7-4.5c-2,0-3.7,1.6-3.7,4.5
		C214.3,118.8,215.9,120.4,217.9,120.4z M226.1,110h1.8v1.7l0,0c0.9-1.3,2.1-2,3.8-2c1.5,0,2.8,0.5,3.2,2c0.8-1.3,2.2-2,3.7-2
		c2.4,0,3.9,1,3.9,3.4v8.7h-1.9v-7.7c0-1.5-0.4-2.6-2.3-2.6s-3.1,1.2-3.1,3v7.4h-1.8v-7.7c0-1.5-0.5-2.6-2.2-2.6
		c-2.3,0-3.2,2.1-3.2,3v7.4h-1.9L226.1,110L226.1,110z M245.6,110h1.9v1.6l0,0c0.6-1.3,2.1-1.9,3.8-1.9c3.6,0,5.4,2.9,5.4,6.2
		c0,3.4-1.8,6.1-5.4,6.1c-1.2,0-3-0.5-3.8-1.8l0,0v6.1h-1.9V110z M251.1,111.5c-2.6,0-3.6,2.3-3.6,4.5c0,2.3,1.1,4.5,3.7,4.5
		s3.5-2.3,3.5-4.6C254.7,113.6,253.6,111.5,251.1,111.5z M269.7,121.8c-0.3,0.2-0.8,0.3-1.4,0.3c-1,0-1.6-0.5-1.6-1.8
		c-1.1,1.3-2.5,1.8-4.2,1.8c-2.1,0-3.9-0.9-3.9-3.3c0-2.7,2-3.3,4-3.6c2.1-0.4,4-0.3,4-1.7c0-1.7-1.4-2-2.6-2
		c-1.6,0-2.9,0.5-2.9,2.2h-1.9c0.1-2.9,2.3-4,5-4c2.1,0,4.4,0.5,4.4,3.2v6.1c0,0.9,0,1.3,0.6,1.3c0.2,0,0.4,0,0.6-0.1v1.6H269.7z
		 M266.5,115.7c-1.5,1.1-5.9,0-5.9,2.9c0,1.3,1.1,1.7,2.3,1.7c2.6,0,3.6-1.6,3.6-2.7V115.7z M272,110h1.8v1.9l0,0
		c0.8-1.5,2.1-2.1,3.8-2.1c3.1,0,4.1,1.8,4.1,4.3v7.8h-1.9v-8c0-1.5-0.9-2.4-2.4-2.4c-2.4,0-3.5,1.6-3.5,3.7v6.7H272V110z
		 M288.9,123.4c-0.9,2.3-1.7,3.2-3.4,3.2c-0.5,0-0.9,0-1.3-0.2v-1.8c0.4,0.1,0.8,0.3,1.1,0.3c0.8,0,1.2-0.4,1.6-1.1l0.8-2l-4.7-11.7
		h2.2l3.4,9.7l0,0l3.3-9.7h2.1L288.9,123.4z"/>
	<path id="ecx.io" class="st0" d="M2.2,72.6C0.9,68.7,0,64.1,0,57.5c0-6.7,0.8-11.3,2.1-15.2c3.7-11.4,13.8-18,27.3-18
		c14.1,0,23.8,6.7,27.4,17.9c1.3,4.2,2.1,8.8,2.1,19.6c0,0.8-0.5,1.3-1.4,1.3H19c-0.5,0-0.8,0.3-0.8,0.8c0.1,1.3,0.4,2.5,0.8,3.5
		c1.7,5.5,6.6,8.4,13.1,8.4c6.3,0,10.9-2.2,14.6-5.6c0.7-0.5,1.3-0.7,1.8,0l8.7,8.1c0.7,0.5,0.7,1.3,0.1,1.8
		c-6,6.4-15.4,10.6-27.1,10.6C15.8,90.7,5.9,84,2.2,72.6z M40,50.8c0.5,0,0.8-0.3,0.8-0.8c0-2-0.3-3.4-0.7-4.7
		c-1.4-4.3-5.4-7-10.6-7c-5.3,0-9.2,2.6-10.6,7c-0.4,1.3-0.7,2.8-0.7,4.7c0,0.5,0.3,0.8,0.8,0.8H40z M65.2,72.7
		c-1.3-3.8-2-8.5-2-15.2s0.7-11.4,2-15.2c3.8-11.8,14.1-18,27.4-18c10.9,0,19.4,5,24,11.9c0.4,0.7,0.4,1.3-0.3,1.8l-11.4,7.5
		c-0.8,0.5-1.4,0.4-2-0.3c-2.8-3.8-5.5-5.5-10.1-5.5c-4.9,0-8.4,2.2-9.8,6.8c-0.9,2.6-1.2,5.6-1.2,10.9s0.3,8.3,1.2,10.9
		c1.4,4.6,5,6.8,9.8,6.8c4.6,0,7.4-1.7,10.1-5.5c0.5-0.7,1.2-0.8,2-0.3l11.4,7.5c0.7,0.5,0.7,1.2,0.3,1.8c-4.6,7-13.1,12-24,12
		C79.3,90.7,69,84.5,65.2,72.7z M161.9,89.2c-0.9,0-1.4-0.4-2-1.2l-11.4-17.3h-0.1L137.1,88c-0.7,0.8-1.2,1.2-2.1,1.2h-16.9
		c-1.1,0-1.3-0.7-0.9-1.3l21.4-31.6L118.8,27c-0.4-0.7-0.1-1.3,0.9-1.3h17.1c0.9,0,1.6,0.3,2.2,1.2l9.6,15h0.1l9.7-15
		c0.7-0.8,1.2-1.2,2.1-1.2h16.9c1.2,0,1.4,0.7,1.1,1.3l-19.9,29.3L180,87.9c0.4,0.7,0.1,1.3-1.1,1.3L161.9,89.2L161.9,89.2z
		 M184.3,72.2c0-0.8,0.5-1.3,1.3-1.3h15.6c0.8,0,1.3,0.5,1.3,1.3V88c0,0.8-0.5,1.3-1.3,1.3h-15.6c-0.8,0-1.3-0.5-1.3-1.3L184.3,72.2
		L184.3,72.2z M214.1,15.6c-0.8,0-1.3-0.5-1.3-1.3v-13c0-0.8,0.5-1.3,1.3-1.3h15.8c0.8,0,1.3,0.5,1.3,1.3v13c0,0.8-0.5,1.3-1.3,1.3
		H214.1z M214.1,89.2c-0.8,0-1.3-0.5-1.3-1.3V27c0-0.8,0.5-1.3,1.3-1.3h15.8c0.8,0,1.3,0.5,1.3,1.3v60.9c0,0.8-0.5,1.3-1.3,1.3
		L214.1,89.2L214.1,89.2z M240.8,72.8c-1.4-4.6-2.1-9.1-2.1-15.4s0.7-10.8,2.1-15.4c3.7-11.6,14.2-17.9,27.6-17.9S292.3,30.4,296,42
		c1.4,4.6,2.1,9.1,2.1,15.4s-0.7,10.8-2.1,15.4c-3.7,11.6-14.2,17.9-27.6,17.9S244.5,84.4,240.8,72.8z M278.2,68.4
		c0.9-2.9,1.2-5.5,1.2-10.9s-0.3-8-1.2-10.9c-1.4-4.5-5-6.8-9.8-6.8c-4.9,0-8.4,2.4-9.8,6.8c-0.9,2.9-1.2,5.5-1.2,10.9
		s0.3,8,1.2,10.9c1.4,4.5,5,6.8,9.8,6.8C273.2,75.2,276.8,72.8,278.2,68.4z"/>
</g>
</svg>
